<mxfile host="app.diagrams.net" agent="Mozilla/5.0 (Windows NT 10.0; Win64; x64) AppleWebKit/537.36 (KHTML, like Gecko) Chrome/128.0.0.0 Safari/537.36" version="24.7.12">
  <diagram id="C5RBs43oDa-KdzZeNtuy" name="Page-1">
    <mxGraphModel dx="1221" dy="725" grid="1" gridSize="10" guides="1" tooltips="1" connect="1" arrows="1" fold="1" page="1" pageScale="1" pageWidth="827" pageHeight="1169" math="0" shadow="0">
      <root>
        <mxCell id="WIyWlLk6GJQsqaUBKTNV-0" />
        <mxCell id="WIyWlLk6GJQsqaUBKTNV-1" parent="WIyWlLk6GJQsqaUBKTNV-0" />
        <mxCell id="3oVoGRYDHaUPl8IOK9rb-12" value="" style="edgeStyle=orthogonalEdgeStyle;rounded=0;orthogonalLoop=1;jettySize=auto;html=1;" edge="1" parent="WIyWlLk6GJQsqaUBKTNV-1" source="3oVoGRYDHaUPl8IOK9rb-0" target="3oVoGRYDHaUPl8IOK9rb-1">
          <mxGeometry relative="1" as="geometry" />
        </mxCell>
        <mxCell id="3oVoGRYDHaUPl8IOK9rb-0" value="传入数据" style="rounded=1;whiteSpace=wrap;html=1;direction=south;textDirection=vertical-lr;fontFamily=宋体;" vertex="1" parent="WIyWlLk6GJQsqaUBKTNV-1">
          <mxGeometry x="40" y="130" width="40" height="110" as="geometry" />
        </mxCell>
        <mxCell id="3oVoGRYDHaUPl8IOK9rb-13" value="" style="edgeStyle=orthogonalEdgeStyle;rounded=0;orthogonalLoop=1;jettySize=auto;html=1;" edge="1" parent="WIyWlLk6GJQsqaUBKTNV-1" source="3oVoGRYDHaUPl8IOK9rb-1" target="3oVoGRYDHaUPl8IOK9rb-2">
          <mxGeometry relative="1" as="geometry" />
        </mxCell>
        <mxCell id="3oVoGRYDHaUPl8IOK9rb-1" value="数据预处理" style="rounded=0;whiteSpace=wrap;html=1;direction=north;textDirection=vertical-lr;fontFamily=宋体;" vertex="1" parent="WIyWlLk6GJQsqaUBKTNV-1">
          <mxGeometry x="150" y="130" width="50" height="110" as="geometry" />
        </mxCell>
        <mxCell id="3oVoGRYDHaUPl8IOK9rb-16" value="yes" style="edgeStyle=orthogonalEdgeStyle;rounded=0;orthogonalLoop=1;jettySize=auto;html=1;" edge="1" parent="WIyWlLk6GJQsqaUBKTNV-1" source="3oVoGRYDHaUPl8IOK9rb-2" target="3oVoGRYDHaUPl8IOK9rb-3">
          <mxGeometry x="-0.3333" y="20" relative="1" as="geometry">
            <mxPoint as="offset" />
          </mxGeometry>
        </mxCell>
        <mxCell id="3oVoGRYDHaUPl8IOK9rb-17" value="no" style="edgeStyle=orthogonalEdgeStyle;rounded=0;orthogonalLoop=1;jettySize=auto;html=1;entryX=0.5;entryY=0;entryDx=0;entryDy=0;" edge="1" parent="WIyWlLk6GJQsqaUBKTNV-1" source="3oVoGRYDHaUPl8IOK9rb-2" target="3oVoGRYDHaUPl8IOK9rb-4">
          <mxGeometry x="-0.4118" y="15" relative="1" as="geometry">
            <mxPoint as="offset" />
          </mxGeometry>
        </mxCell>
        <mxCell id="3oVoGRYDHaUPl8IOK9rb-2" value="是否进行特征提取" style="rhombus;whiteSpace=wrap;html=1;" vertex="1" parent="WIyWlLk6GJQsqaUBKTNV-1">
          <mxGeometry x="260" y="145" width="160" height="80" as="geometry" />
        </mxCell>
        <mxCell id="3oVoGRYDHaUPl8IOK9rb-18" value="" style="edgeStyle=orthogonalEdgeStyle;rounded=0;orthogonalLoop=1;jettySize=auto;html=1;" edge="1" parent="WIyWlLk6GJQsqaUBKTNV-1" source="3oVoGRYDHaUPl8IOK9rb-3" target="3oVoGRYDHaUPl8IOK9rb-5">
          <mxGeometry relative="1" as="geometry" />
        </mxCell>
        <mxCell id="3oVoGRYDHaUPl8IOK9rb-3" value="选择最优模型" style="rounded=0;whiteSpace=wrap;html=1;" vertex="1" parent="WIyWlLk6GJQsqaUBKTNV-1">
          <mxGeometry x="282" y="270" width="116" height="40" as="geometry" />
        </mxCell>
        <mxCell id="3oVoGRYDHaUPl8IOK9rb-19" value="" style="edgeStyle=orthogonalEdgeStyle;rounded=0;orthogonalLoop=1;jettySize=auto;html=1;" edge="1" parent="WIyWlLk6GJQsqaUBKTNV-1" source="3oVoGRYDHaUPl8IOK9rb-4" target="3oVoGRYDHaUPl8IOK9rb-6">
          <mxGeometry relative="1" as="geometry" />
        </mxCell>
        <mxCell id="3oVoGRYDHaUPl8IOK9rb-4" value="选择最优模型" style="rounded=0;whiteSpace=wrap;html=1;" vertex="1" parent="WIyWlLk6GJQsqaUBKTNV-1">
          <mxGeometry x="450" y="270" width="110" height="40" as="geometry" />
        </mxCell>
        <mxCell id="3oVoGRYDHaUPl8IOK9rb-20" value="" style="edgeStyle=orthogonalEdgeStyle;rounded=0;orthogonalLoop=1;jettySize=auto;html=1;" edge="1" parent="WIyWlLk6GJQsqaUBKTNV-1" source="3oVoGRYDHaUPl8IOK9rb-5" target="3oVoGRYDHaUPl8IOK9rb-8">
          <mxGeometry relative="1" as="geometry" />
        </mxCell>
        <mxCell id="3oVoGRYDHaUPl8IOK9rb-5" value="MLP" style="rounded=0;whiteSpace=wrap;html=1;" vertex="1" parent="WIyWlLk6GJQsqaUBKTNV-1">
          <mxGeometry x="280" y="350" width="120" height="40" as="geometry" />
        </mxCell>
        <mxCell id="3oVoGRYDHaUPl8IOK9rb-21" value="比较二者性能" style="edgeStyle=orthogonalEdgeStyle;rounded=0;orthogonalLoop=1;jettySize=auto;html=1;" edge="1" parent="WIyWlLk6GJQsqaUBKTNV-1" source="3oVoGRYDHaUPl8IOK9rb-6" target="3oVoGRYDHaUPl8IOK9rb-8">
          <mxGeometry x="0.4857" y="-15" relative="1" as="geometry">
            <mxPoint x="15" y="-15" as="offset" />
          </mxGeometry>
        </mxCell>
        <mxCell id="3oVoGRYDHaUPl8IOK9rb-6" value="SVC" style="rounded=0;whiteSpace=wrap;html=1;" vertex="1" parent="WIyWlLk6GJQsqaUBKTNV-1">
          <mxGeometry x="447.5" y="350" width="115" height="40" as="geometry" />
        </mxCell>
        <mxCell id="3oVoGRYDHaUPl8IOK9rb-23" value="" style="edgeStyle=orthogonalEdgeStyle;rounded=0;orthogonalLoop=1;jettySize=auto;html=1;" edge="1" parent="WIyWlLk6GJQsqaUBKTNV-1" source="3oVoGRYDHaUPl8IOK9rb-8" target="3oVoGRYDHaUPl8IOK9rb-9">
          <mxGeometry relative="1" as="geometry" />
        </mxCell>
        <mxCell id="3oVoGRYDHaUPl8IOK9rb-8" value="MLP" style="rounded=0;whiteSpace=wrap;html=1;" vertex="1" parent="WIyWlLk6GJQsqaUBKTNV-1">
          <mxGeometry x="360" y="480" width="120" height="40" as="geometry" />
        </mxCell>
        <mxCell id="3oVoGRYDHaUPl8IOK9rb-24" value="" style="edgeStyle=orthogonalEdgeStyle;rounded=0;orthogonalLoop=1;jettySize=auto;html=1;" edge="1" parent="WIyWlLk6GJQsqaUBKTNV-1" source="3oVoGRYDHaUPl8IOK9rb-9" target="3oVoGRYDHaUPl8IOK9rb-10">
          <mxGeometry relative="1" as="geometry" />
        </mxCell>
        <mxCell id="3oVoGRYDHaUPl8IOK9rb-9" value="训练模型" style="rounded=0;whiteSpace=wrap;html=1;" vertex="1" parent="WIyWlLk6GJQsqaUBKTNV-1">
          <mxGeometry x="360" y="560" width="120" height="35" as="geometry" />
        </mxCell>
        <mxCell id="3oVoGRYDHaUPl8IOK9rb-10" value="实时推理" style="rounded=1;whiteSpace=wrap;html=1;" vertex="1" parent="WIyWlLk6GJQsqaUBKTNV-1">
          <mxGeometry x="360" y="640" width="120" height="40" as="geometry" />
        </mxCell>
      </root>
    </mxGraphModel>
  </diagram>
</mxfile>
